PathFileType	4	(X/Y/Z)	E:\Qualisys_Data\Carbon_Farble_Plate\Data\Amateur_Runner\S1\T1\S1T1V21_c3d.trc
DataRate	CameraRate	NumFrames	NumMarkers	Units	OrigDataRate	OrigDataStartFrame	OrigNumFrames
200.000000	200.000000	5	39	mm	200.000000	106	283
Frame#	Time	LSHO			RSHO			LICST			RICST			LASIS			LHEEL			RASIS			LTROC			RTROC			SACR			LTH1			LSK4			LTH2			LTH3			RHM5			LSK2			LTH4			RTH1			LTOE			RTH2			RTH3			RTH4			LLEP			RLEP			LSK1			LSK3			RSK1			LHM5			RSK2			LFT1			RSK3			RSK4			LLME			RLME			RTOE			RHEEL			RFT1			RFT2			LFT2			
		X1	Y1	Z1	X2	Y2	Z2	X3	Y3	Z3	X4	Y4	Z4	X5	Y5	Z5	X6	Y6	Z6	X7	Y7	Z7	X8	Y8	Z8	X9	Y9	Z9	X10	Y10	Z10	X11	Y11	Z11	X12	Y12	Z12	X13	Y13	Z13	X14	Y14	Z14	X15	Y15	Z15	X16	Y16	Z16	X17	Y17	Z17	X18	Y18	Z18	X19	Y19	Z19	X20	Y20	Z20	X21	Y21	Z21	X22	Y22	Z22	X23	Y23	Z23	X24	Y24	Z24	X25	Y25	Z25	X26	Y26	Z26	X27	Y27	Z27	X28	Y28	Z28	X29	Y29	Z29	X30	Y30	Z30	X31	Y31	Z31	X32	Y32	Z32	X33	Y33	Z33	X34	Y34	Z34	X35	Y35	Z35	X36	Y36	Z36	X37	Y37	Z37	X38	Y38	Z38	X39	Y39	Z39	

107	0.53	-622.961181640625	1469.017456054688	-609.3302001953125	-665.1610717773438	1482.962646484375	-279.4294128417969	-684.1785888671875	1018.11865234375	-568.049072265625	-689.5789184570312	1033.587158203125	-266.5582580566406	-640.063232421875	979.894287109375	-540.0350952148438	-1024.973266601562	116.4562683105469	-448.2490844726562	-646.3458862304688	988.6499633789062	-274.8724975585938	-754.5474243164062	897.9287109375	-582.6644287109375	-743.398193359375	889.5239868164062	-245.2324676513672	-804.5597534179688	1037.314086914062	-414.1053466796875	-641.9375610351562	738.7749633789062	-561.1952514648438	-930.94482421875	262.1744995117188	-488.7224426269531	-723.8508911132812	738.8087158203125	-584.4705200195312	-650.6478271484375	636.2575073242188	-541.8162231445312	-700.0117797851562	184.1490936279297	-259.2830810546875	-872.7850952148438	338.1574401855469	-529.47802734375	-735.5648803710938	642.2197265625	-557.3727416992188	-566.2304077148438	837.7946166992188	-259.6362915039062	-775.293212890625	57.00697708129883	-454.9017639160156	-626.481201171875	789.56591796875	-235.1026153564453	-502.9282836914062	757.767333984375	-260.0570983886719	-567.3047485351562	708.76318359375	-244.8590240478516	-717.6319580078125	486.2210083007812	-516.1426391601562	-457.1968688964844	583.1957397460938	-279.629638671875	-806.3092041015625	291.2887573242188	-509.7618103027344	-868.4515380859375	212.3831176757812	-502.8835144042969	-574.3716430664062	445.4481201171875	-271.3071899414062	-841.77880859375	57.38925933837891	-514.5914306640625	-631.2743530273438	503.7142944335938	-288.1049194335938	-1019.089599609375	89.20004272460938	-419.7965393066406	-643.6906127929688	373.0079040527344	-284.839599609375	-697.4383544921875	429.8717956542969	-309.7769470214844	-960.2349243164062	131.7841949462891	-496.082275390625	-758.59619140625	307.8004150390625	-288.9931945800781	-626.877685546875	159.1352081298828	-330.2116088867188	-833.7948608398438	309.2338256835938	-338.3616638183594	-837.7494506835938	277.7881469726562	-369.0479125976562	-844.9287719726562	287.4017944335938	-312.2025756835938	-1026.89404296875	86.90376281738281	-472.811279296875
108	0.535	-599.9798583984375	1472.910034179688	-607.512939453125	-646.8087158203125	1486.140991210938	-278.8570556640625	-661.1735229492188	1019.273742675781	-568.0179443359375	-668.9310302734375	1037.413208007812	-267.2730102539062	-617.164794921875	981.381591796875	-540.0411376953125	-1020.658325195312	124.2286071777344	-448.6634521484375	-625.7498779296875	992.5604248046876	-275.0354614257812	-733.4102172851562	900.1884765625	-582.8052978515625	-722.4739990234375	893.859619140625	-244.5821533203125	-782.9573974609375	1039.890625	-416.1565856933594	-624.7317504882812	738.947265625	-558.3926391601562	-926.2112426757812	268.2987060546875	-488.0426635742188	-706.3532104492188	741.3099365234375	-583.8087768554688	-636.6287841796875	636.9064331054688	-539.42333984375	-657.169677734375	178.4727630615234	-258.6418762207031	-867.114501953125	343.990478515625	-528.8463134765625	-721.020263671875	645.1676635742188	-556.3922119140625	-545.2947998046875	843.4425659179688	-259.1427917480469	-773.8216552734375	57.61084365844727	-455.0498046875	-605.3590087890625	794.1994018554688	-235.3170013427734	-481.0599975585938	763.9848022460938	-259.9613952636719	-544.8131103515625	714.255615234375	-244.9005584716797	-709.1629028320312	488.5134887695312	-514.834228515625	-433.2831420898438	589.2730712890625	-279.3840026855469	-801.3302612304688	295.5307922363281	-509.1249084472656	-865.4828491210938	217.87158203125	-502.1188659667969	-545.1461181640625	445.8515930175781	-270.7339172363281	-840.7166137695312	58.13663864135742	-514.5584106445312	-604.7591552734375	501.1326599121094	-287.60107421875	-1015.655090332031	98.17134857177734	-420.0606384277344	-610.2039184570312	370.5879516601562	-283.9359741210938	-666.8729858398438	424.2908630371094	-309.0566711425781	-957.0220336914062	137.5136566162109	-496.2608642578125	-722.1712646484375	299.2007446289062	-287.8921203613281	-582.6609497070312	157.2761840820312	-329.3815612792969	-796.846923828125	296.2617492675781	-337.6799011230469	-799.1616821289062	264.947509765625	-368.3902893066406	-807.5400390625	274.7578125	-311.2600708007812	-1023.647827148438	94.55935668945312	-472.9949951171875
109	0.54	-577.0535278320312	1476.745727539062	-606.1448364257812	-628.9318237304688	1489.209716796875	-278.3203735351562	-638.4597778320312	1020.324279785156	-568.1063232421875	-648.4039306640625	1041.773315429688	-267.9469299316406	-595.0687255859375	982.5476684570312	-539.8582153320312	-1016.613952636719	131.7252502441406	-449.3907165527344	-605.2477416992188	997.1185913085938	-274.7340087890625	-712.3157348632812	902.2559204101562	-582.7434692382812	-701.4353637695312	897.9774780273438	-244.5597381591797	-761.6751098632812	1043.189575195312	-417.7102661132812	-607.4940795898438	739.5772094726562	-555.0543212890625	-920.57470703125	274.99658203125	-487.1848754882812	-687.9968872070312	744.0059814453125	-583.0187377929688	-622.2971801757812	638.1847534179688	-536.3831176757812	-614.0232543945312	173.2144012451172	-257.8334350585938	-861.1107177734375	349.6711120605469	-527.6063232421875	-705.7557373046875	648.4413452148438	-555.8753662109375	-524.3737182617188	848.619873046875	-259.1802978515625	-772.9568481445312	57.53176879882812	-454.6663513183594	-583.6207275390625	798.94921875	-235.2751159667969	-459.4025268554688	769.84716796875	-260.0524291992188	-523.1163940429688	718.9420776367188	-245.7534637451172	-699.864013671875	491.9193420410156	-513.9118041992188	-410.0465698242188	595.1964111328125	-278.9580993652344	-795.5643920898438	300.6644592285156	-509.3040161132812	-860.4847412109375	223.9290008544922	-502.565673828125	-515.2059936523438	446.3854370117188	-269.4540710449219	-839.8114013671875	59.22858047485352	-514.1016235351562	-576.8453979492188	497.823486328125	-286.6340942382812	-1012.221618652344	105.7944030761719	-420.1709899902344	-577.2479858398438	367.3351440429688	-283.3506469726562	-635.9766235351562	418.369384765625	-308.7347412109375	-952.6724243164062	144.2319793701172	-496.0907592773438	-685.2394409179688	289.8541564941406	-287.9808044433594	-538.9322509765625	156.2288208007812	-328.33251953125	-759.4049682617188	283.9620971679688	-336.9193420410156	-760.7193603515625	252.3049011230469	-367.8876647949219	-769.14013671875	261.4734802246094	-311.6454772949219	-1020.219909667969	101.9957504272461	-473.2403564453125
110	0.545	-554.1279907226562	1480.707641601562	-604.4188232421875	-610.4435424804688	1492.614135742188	-277.9926147460938	-615.7991333007812	1021.970581054688	-568.0755004882812	-628.0476684570312	1045.220458984375	-269.0530395507812	-572.6660766601562	983.9893188476562	-540.1396484375	-1011.78125	138.9686584472656	-449.6211547851562	-586.3153076171875	998.3302612304688	-274.9290771484375	-691.20458984375	904.9166870117188	-582.6497192382812	-680.2991333007812	902.5361328125	-244.2979431152344	-739.2976684570312	1046.052001953125	-418.6327514648438	-590.0286865234375	741.2213134765625	-552.859130859375	-913.942626953125	282.0602722167969	-485.8994750976562	-669.919189453125	747.2207641601562	-582.3724975585938	-607.3551025390625	640.2847290039062	-533.8394775390625	-571.2225341796875	167.9187316894531	-256.7123413085938	-854.2908325195312	356.1185302734375	-526.1157836914062	-690.2676391601562	652.133056640625	-555.19287109375	-502.907470703125	853.408935546875	-259.66796875	-771.8289794921875	57.52323532104492	-454.5288696289062	-561.6740112304688	803.6561889648438	-235.9391326904297	-437.7302551269531	775.0069580078125	-260.4019165039062	-501.2400512695312	724.0136108398438	-246.2190246582031	-689.338134765625	496.0319213867188	-513.2803344726562	-387.3990478515625	600.638671875	-278.8633728027344	-789.0691528320312	306.6474304199219	-509.8364868164062	-854.570556640625	229.9744110107422	-502.775390625	-486.42529296875	445.94189453125	-268.8359375	-839.85888671875	60.79785537719727	-514.1489868164062	-550.5162353515625	495.0185852050781	-285.1584777832031	-1008.834899902344	111.8188629150391	-420.4501953125	-543.8346557617188	364.7306213378906	-282.2669372558594	-605.4507446289062	412.4806518554688	-307.3889465332031	-947.9788208007812	151.4302673339844	-495.9951477050781	-648.424072265625	281.7134094238281	-286.7005920410156	-495.0311279296875	154.9042510986328	-327.1764526367188	-721.9268798828125	271.5191040039062	-336.2157287597656	-720.4666137695312	240.7618713378906	-368.3876037597656	-730.5448608398438	248.8777160644531	-311.1485595703125	-1016.588073730469	109.3421325683594	-473.6679992675781
111	0.55	-531.4741821289062	1484.957275390625	-602.76904296875	-592.0401000976562	1495.7998046875	-277.6583862304688	-593.2777709960938	1024.08544921875	-568.4690551757812	-605.772705078125	1048.241088867188	-269.1412353515625	-550.4058837890625	985.3486328125	-540.0185546875	-1007.205017089844	146.2194519042969	-449.368408203125	-564.598876953125	1002.974975585938	-275.5601501464844	-669.7289428710938	907.6209106445312	-582.6410522460938	-658.3311157226562	906.71484375	-243.4551391601562	-717.0338745117188	1049.311401367188	-419.3652038574219	-572.0626220703125	743.0167236328125	-550.5462646484375	-906.63623046875	289.3580017089844	-485.2756652832031	-651.41064453125	750.9832153320312	-582.5706787109375	-592.1536254882812	642.5151977539062	-531.5594482421875	-528.5570068359375	163.2073516845703	-255.5071716308594	-846.9208984375	363.5634765625	-524.6340942382812	-674.4996337890625	655.672119140625	-554.4100952148438	-480.9606323242188	858.13720703125	-259.8828125	-770.6356811523438	57.17626571655273	-454.7108764648438	-539.8511352539062	808.5143432617188	-235.6365203857422	-415.6174011230469	779.8180541992188	-260.8563537597656	-478.9356994628906	729.0831298828125	-246.9503326416016	-678.608642578125	500.2882690429688	-513.1412963867188	-365.6174621582031	605.482421875	-278.4578247070312	-781.8675537109375	312.771484375	-510.5778503417969	-848.439697265625	237.2254180908203	-504.0133972167969	-456.8026428222656	445.4100952148438	-267.0479125976562	-838.1004638671875	62.42862701416016	-514.3922729492188	-522.9063720703125	490.9855346679688	-284.9590454101562	-1004.831420898438	118.1044082641602	-420.4859924316406	-510.6722412109375	361.2775573730469	-281.6030883789062	-574.4224853515625	407.0243530273438	-308.017578125	-942.2499389648438	157.8283843994141	-496.0400695800781	-610.724365234375	272.4932250976562	-286.6015014648438	-451.2716369628906	154.111572265625	-325.8943481445312	-683.435302734375	259.3673400878906	-336.1607666015625	-680.6524047851562	227.8719787597656	-367.4293518066406	-691.4153442382812	236.1547393798828	-310.0874328613281	-1012.533447265625	116.7315368652344	-473.4405517578125
